<svg class="svg-icon" style="width: 1em; height: 1em;vertical-align: middle;fill: currentColor;overflow: hidden;" viewBox="0 0 1024 1024" version="1.1" xmlns="http://www.w3.org/2000/svg"><path d="M567.69493 315.384434 693.848703 441.538208 441.541156 693.845756 315.387382 567.691982zM987.093151 293.212909l-72.443805-72.443805-31.538443 31.538443c-16.147683 16.147683-38.445363 26.113831-63.076887 26.113831-49.263049 0-89.222257-39.927669-89.222257-89.190718 0-24.631524 9.997687-46.960742 26.14537-63.108425l31.538443-31.538443-72.443805-72.443805c-29.519983-29.519983-77.868417-29.519983-107.3884 0L22.142935 608.597343c-29.519983 29.519983-29.519983 77.868417 0 107.3884l72.443805 72.443805 31.506905-31.506905c16.147683-16.179221 38.476901-26.176908 63.108425-26.176908 49.263049 0 89.190718 39.927669 89.190718 89.190718 0 24.631524-9.997687 46.960742-26.14537 63.108425l-31.538443 31.538443 72.443805 72.443805c29.519983 29.519983 77.868417 29.519983 107.3884 0l586.457356-586.457356C1016.613134 371.081326 1016.613134 322.732892 987.093151 293.212909zM441.541156 819.99953l-252.307548-252.307548 378.461321-378.461321 252.307548 252.307548L441.541156 819.99953z"  /></svg>